<svg xmlns="http://www.w3.org/2000/svg" version="1.1" viewBox="-5.0 -10.0 110.0 135.0">
 <path d="m20.211 46.117c0.089843 1.6875 0.78516 3.2812 1.9883 4.4844l22.957 22.957c2.6641 2.6641 7.0273 2.6641 9.6914 0l22.957-22.957c4.2383-4.2422 1.3359-11.684-4.8477-11.684-1.8203 0-3.5586 0.69922-4.8477 1.9883l-11.254 11.258v-42.105c0-1.8203-0.73047-3.5469-1.9648-4.7812-4.7109-4.5781-11.742-0.97656-11.742 4.7812v42.109l-11.258-11.258c-4.0117-4.0156-11.68-1.8164-11.68 5.207zm-3.9492 38.785c-4.8633 4.8633-1.1016 11.902 4.625 11.902h58.234c6.1484 0 9.0859-7.5625 4.8906-11.637-1.3594-1.3203-2.9727-2.0703-4.8906-2.0703l-58.234-0.003906c-1.7227 0-3.3633 0.64844-4.625 1.8086z" fill-rule="evenodd"/>
<text x="0.0" y="117.5" font-size="5.0" font-weight="bold" font-family="Arbeit Regular, Helvetica, Arial-Unicode, Arial, Sans-serif" fill="#000000">Created by Elin Erkani</text><text x="0.0" y="122.5" font-size="5.0" font-weight="bold" font-family="Arbeit Regular, Helvetica, Arial-Unicode, Arial, Sans-serif" fill="#000000">from Noun Project</text></svg>